Coordinates
version=1
nRows=14
nColumns=36
inDegrees=yes

Units are S.I. units (second, meters, Newtons, ...)
If the header above contains a line with 'inDegrees', this indicates whether rotational values are in degrees (yes) or radians (no).

endheader
time	pelvis_tilt	pelvis_list	pelvis_rotation	pelvis_tx	pelvis_ty	pelvis_tz	hip_flexion_r	hip_adduction_r	hip_rotation_r	knee_angle_r	knee_angle_r_beta	ankle_angle_r	subtalar_angle_r	mtp_angle_r	hip_flexion_l	hip_adduction_l	hip_rotation_l	knee_angle_l	knee_angle_l_beta	ankle_angle_l	subtalar_angle_l	mtp_angle_l	lumbar_extension	lumbar_bending	lumbar_rotation	arm_flex_r	arm_add_r	arm_rot_r	elbow_flex_r	pro_sup_r	arm_flex_l	arm_add_l	arm_rot_l	elbow_flex_l	pro_sup_l
      4.14166670	    -11.15467197	      1.72171376	     -5.53381431	      0.37722189	      0.78447200	      0.01672280	     47.84783239	     -4.75870103	      3.62326500	     66.30778662	      1.15728920	     16.84208554	    -28.15393140	     -7.49999987	     50.93564499	    -12.95762788	     -2.01097086	     61.65736968	      1.07612411	      6.18762175	    -25.53697604	     -7.49999987	    -26.72396828	      6.84027704	     -5.57503926	    -22.06333437	    -15.99834624	    -30.26154444	     94.10499717	     81.17636962	     -5.39197395	    -34.59912373	    -41.35027317	    143.47246092	     86.45022213
      4.14583330	    -10.85740147	      1.67157976	     -5.34673595	      0.37895414	      0.78254208	      0.01833831	     48.00991937	     -4.79363545	      3.41316595	     67.56338270	      1.17920348	     17.68662854	    -27.84444211	     -7.49999987	     51.32674275	    -12.98036074	     -1.50812103	     62.91193582	      1.09802042	      6.64511522	    -25.28500066	     -7.49999987	    -27.46862968	      6.72485066	     -6.53140229	    -19.67451393	    -15.72480605	    -29.35523113	     93.16100910	     87.08953705	     -5.46525056	    -33.57911416	    -42.43585511	    144.60914285	     91.47170553
      4.15000000	    -10.73221667	      1.66023486	     -5.27431768	      0.37993191	      0.77426341	      0.01783608	     48.65436311	     -4.85836467	      3.39031835	     69.21548996	      1.20803819	     18.13294098	    -27.89015275	     -7.49999987	     52.05750645	    -12.99768128	     -1.02299605	     64.50343204	      1.12579727	      7.25171199	    -25.39916789	     -7.49999987	    -27.79349525	      6.48595442	     -6.63280813	    -18.51051537	    -15.31740389	    -28.82011377	     92.81739889	     84.67269324	     -4.51786789	    -32.52422068	    -41.16622507	    145.40417149	     88.82872675
      4.15416670	    -10.55661892	      1.49019174	     -5.18215594	      0.38059018	      0.77059777	      0.01997195	     48.98461110	     -4.78521675	      3.21997658	     70.38969028	      1.22853185	     18.97247841	    -27.40706564	     -7.49999987	     52.55300855	    -13.06631425	     -0.40056905	     65.72991933	      1.14720351	      8.06199579	    -24.88179997	     -7.49999987	    -28.24884584	      6.64221047	     -7.23636607	    -17.60351511	    -14.19118350	    -29.16019467	     93.53584264	     87.48113890	     -4.50406438	    -30.95513863	    -41.82730807	    145.90360980	     91.09271727
      4.15833330	    -10.42635824	      1.48526184	     -5.18577545	      0.38097787	      0.76800267	      0.02015446	     49.19362115	     -4.75646424	      3.20795239	     71.15734824	      1.24193001	     19.53852774	    -27.23267235	     -7.49999987	     52.88371995	    -13.01007759	     -0.02222692	     66.59710900	      1.16233882	      8.53214036	    -24.77193792	     -7.49999987	    -28.50770596	      6.47169876	     -7.02090562	    -16.94862593	    -13.60406889	    -29.26590224	     93.60484195	     84.30899178	     -3.02710643	    -29.91081498	    -39.83356057	    145.96390714	     87.54011430
      4.16250000	    -10.36059728	      1.42120841	     -5.12208403	      0.38015923	      0.76285481	      0.02200221	     49.62890598	     -4.69686809	      3.10996412	     72.21148913	      1.26032824	     19.87677231	    -27.31602988	     -7.49999987	     53.40266010	    -13.06816606	      0.39370511	     67.53266505	      1.17866736	      9.13359494	    -24.60318808	     -7.49999987	    -28.55384839	      6.23229542	     -7.45942788	    -16.10462047	    -12.83271795	    -28.92652539	     93.29968489	     87.74897011	     -2.37721490	    -29.28023479	    -39.11590144	    146.14718418	     91.12953685
      4.16666670	    -10.20821102	      1.32464291	     -5.12426464	      0.37750133	      0.76134812	      0.02289798	     50.05175417	     -4.44559969	      3.15199504	     73.03509354	      1.27470285	     20.15984695	    -27.50097564	     -7.49999987	     53.69184462	    -13.17355625	      0.80727185	     68.23098794	      1.19085539	      9.19307174	    -24.87364302	     -7.49999987	    -28.94160154	      6.12227682	     -7.51949704	    -15.65080372	    -11.58076351	    -28.98946032	     93.87564337	     84.98267342	     -1.12664135	    -29.07554710	    -37.48927622	    146.00317313	     88.12177629
      4.17083330	    -10.04893306	      1.20989710	     -5.17927395	      0.37888358	      0.75537253	      0.02069237	     50.41238607	     -4.34960275	      3.29525280	     73.96238025	      1.29088706	     20.56488593	    -27.24401109	     -7.49999987	     54.07417789	    -13.20292337	      1.28767076	     69.14034644	      1.20672669	      9.51826988	    -25.10924990	     -7.49999987	    -29.18431828	      6.10056779	     -8.12279916	    -14.89692233	    -10.59527021	    -28.67035427	     94.10383488	     85.14374067	     -0.75951082	    -29.06508395	    -37.08691485	    146.01418620	     88.32593153
      4.17500000	     -9.95089842	      1.13941353	     -5.36647060	      0.37735412	      0.75234512	      0.02059428	     51.03808937	     -4.18519801	      3.41205750	     75.01367215	      1.30923556	     21.14507942	    -26.78546993	     -7.49999987	     54.50542288	    -13.16925577	      1.70501352	     70.05075189	      1.22261626	      9.65858525	    -25.54221735	     -7.49999987	    -29.32825843	      6.04127170	     -8.74319429	    -13.84629701	     -9.57719670	    -28.51057258	     94.04914618	     87.71819106	     -0.25412299	    -28.99537509	    -36.55576185	    146.05312895	     91.30458179
      4.17916670	     -9.67983054	      1.09585961	     -5.54052406	      0.37929190	      0.74859333	      0.01828959	     51.30783079	     -4.20941133	      3.62395642	     76.02184755	      1.32683154	     21.28706308	    -26.64027151	     -7.49999987	     54.70407908	    -13.07609222	      2.01920309	     71.01136905	      1.23938220	      9.74743348	    -26.06670891	     -7.49999987	    -29.57371422	      6.03523163	     -8.96650372	    -13.11924719	     -8.93198197	    -28.20588980	     94.19108278	     87.76865046	      0.70113686	    -28.75535575	    -34.90964748	    145.93537771	     91.73472616
      4.18333330	     -9.34634247	      1.00483334	     -5.67460968	      0.38332096	      0.74445076	      0.02225507	     51.31035653	     -4.05488293	      3.76452294	     77.03014443	      1.34442964	     21.38300418	    -26.80833490	     -7.49999987	     54.71277639	    -13.21166967	      2.30923367	     71.97815188	      1.25625574	      9.96549122	    -26.38304324	     -7.49999987	    -29.73193590	      6.08740135	     -9.48199888	    -12.37718698	     -8.24451337	    -27.84941009	     94.28755337	     87.78014768	      0.98405361	    -28.29500014	    -34.47266540	    145.90963329	     91.77811941
      4.18750000	     -9.02508032	      1.01646783	     -5.80360592	      0.38281654	      0.74298006	      0.02097780	     51.22688887	     -4.02107933	      3.85070490	     77.69864870	      1.35609724	     21.38237838	    -27.07921591	     -7.49999987	     54.62742347	    -13.13123621	      2.47722474	     72.74954442	      1.26971908	     10.18564068	    -26.61674949	     -7.49999987	    -29.94981255	      6.07431893	     -9.57952684	    -11.74729571	     -7.62895939	    -27.46125564	     94.47201846	     84.04539419	      1.80039524	    -27.86188060	    -32.01469560	    145.53736925	     87.80591568
      4.19166670	     -8.93427228	      1.02710693	     -5.91722190	      0.38164578	      0.73874870	      0.01762405	     51.55206273	     -4.07655904	      3.98733504	     78.43656299	      1.36897628	     21.58121681	    -26.91083809	     -7.49999987	     54.97678633	    -12.94571314	      2.65056042	     73.68374078	      1.28602388	     10.40323790	    -27.04366351	     -7.49999987	    -29.90824057	      6.12496134	    -10.36008343	    -10.52771954	     -7.52509704	    -26.58808042	     93.95423691	     87.64951516	      1.76040330	    -27.13333245	    -31.94159861	    145.61112637	     92.79899632
      4.19583330	     -8.89270562	      0.98807264	     -5.87816960	      0.38390053	      0.73638436	      0.01793167	     51.87921492	     -4.13011388	      4.13124901	     79.18431613	      1.38202703	     21.43365614	    -27.28855903	     -7.49999987	     55.30755198	    -12.76837294	      2.89147438	     74.38864501	      1.29832678	     10.78710485	    -27.21264775	     -7.49999987	    -29.87401696	      6.08016068	    -10.46442963	     -9.91946137	     -7.65754685	    -25.83217505	     93.63653392	     87.50013770	      2.59761897	    -26.56959808	    -30.23909618	    145.27728178	     93.02544129
